<svg version="1.1" id="Layer_1" xmlns="http://www.w3.org/2000/svg" xmlns:xlink="http://www.w3.org/1999/xlink" x="0px" y="0px"
	 width="100%" viewBox="0 0 787 787" enable-background="new 0 0 787 787" xml:space="preserve">
<path fill="#FFFFFF" opacity="1.000000" stroke="none" 
	d="
M363.000000,788.000000 
	C242.000000,788.000000 121.500000,788.000000 1.000000,788.000000 
	C1.000000,525.666687 1.000000,263.333344 1.000000,1.000000 
	C263.333344,1.000000 525.666687,1.000000 788.000000,1.000000 
	C788.000000,263.333344 788.000000,525.666687 788.000000,788.000000 
	C646.500000,788.000000 505.000000,788.000000 363.000000,788.000000 
M568.607910,516.964905 
	C568.777649,516.670593 568.947388,516.376343 569.008789,516.076477 
	C569.008789,516.076477 569.118347,516.101135 569.635498,515.797729 
	C569.820068,515.243958 570.004639,514.690186 570.149170,514.003540 
	C570.149170,514.003540 570.150146,514.142273 570.645203,513.988953 
	C570.805298,513.690308 570.965332,513.391724 571.067017,513.143127 
	C571.067017,513.143127 571.143921,513.144165 571.778992,512.932373 
	C572.924683,510.976135 574.070312,509.019897 575.778870,506.701141 
	C577.488586,503.854950 579.275513,501.051971 580.896057,498.155884 
	C596.828552,469.683167 600.388306,438.795288 595.752502,407.324921 
	C589.636841,365.808533 567.552551,333.678497 532.755981,310.383972 
	C525.883667,305.783386 518.441162,302.034454 510.990387,297.242462 
	C472.211731,234.482513 394.898010,212.750458 330.888550,246.858551 
	C300.411163,263.098724 279.432373,287.878601 266.484253,320.133789 
	C266.298950,320.420654 266.113678,320.707520 265.994720,320.972229 
	C265.994720,320.972229 265.954559,320.914978 265.242065,320.944855 
	C207.998566,352.622192 182.396713,423.471863 205.599289,486.032776 
	C224.940506,538.182434 277.817413,578.431213 344.591400,573.974121 
	C348.387115,574.292175 352.185822,574.916992 355.978119,574.880554 
	C391.369598,574.540161 426.761963,574.200806 462.149689,573.601746 
	C474.094025,573.399475 485.850128,571.531311 497.002106,566.999329 
	C497.002106,566.999329 497.013062,567.056458 497.760620,567.065308 
	C499.518341,566.384277 501.276093,565.703186 503.001190,564.996826 
	C503.001190,564.996826 503.008026,565.037537 503.619476,565.024048 
	C504.113434,564.729492 504.607361,564.434937 505.019501,564.148682 
	C505.019501,564.148682 505.103973,564.165039 505.880219,564.154724 
	C510.935333,561.780151 515.990417,559.405579 521.007385,556.995850 
	C521.007385,556.995850 521.016602,557.046631 521.528259,556.934814 
	C521.729675,556.670837 521.931091,556.406860 522.038818,556.175964 
	C522.038818,556.175964 522.137268,556.189697 522.736450,556.172974 
	C523.194153,555.834473 523.651794,555.496033 523.994019,555.008789 
	C523.994019,555.008789 524.101440,555.164673 524.781067,555.157898 
	C525.878784,554.458557 526.976501,553.759155 528.015564,553.001648 
	C528.015564,553.001648 528.039795,553.080505 528.543945,552.944092 
	C528.740662,552.677185 528.937439,552.410217 529.091797,552.193481 
	C529.091797,552.193481 529.157471,552.196594 529.853394,552.163452 
	C531.284668,551.159912 532.715881,550.156433 534.118958,549.046082 
	C534.118958,549.046082 534.088257,549.152222 534.687866,549.101440 
	C535.142090,548.745850 535.596252,548.390320 535.996155,548.006775 
	C535.996155,548.006775 536.032532,548.056030 536.715759,547.934326 
	C540.193420,545.003662 543.671082,542.073059 547.145752,539.064087 
	C547.145752,539.064087 547.096863,539.125427 547.597290,538.979980 
	C547.776978,538.700012 547.956665,538.420105 548.077515,538.041504 
	C548.077515,538.041504 548.147400,538.145630 548.653503,538.023621 
	C548.816406,537.734009 548.979370,537.444336 549.056152,537.190979 
	C549.056152,537.190979 549.150208,537.186768 549.748535,537.169189 
	C550.183655,536.792114 550.618713,536.415039 550.994568,536.010315 
	C550.994568,536.010315 551.036926,536.060425 551.698730,535.914673 
	C554.867126,532.337830 558.035583,528.760925 561.181091,525.171936 
	C561.181091,525.171936 561.173035,525.147339 561.674500,525.015503 
	C561.830322,524.716370 561.986145,524.417297 562.039673,523.991577 
	C562.039673,523.991577 562.119202,524.133301 562.609009,523.960938 
	C562.777710,523.667175 562.946411,523.373474 563.036987,523.117249 
	C563.036987,523.117249 563.121338,523.137390 563.753052,522.981812 
	C564.528320,522.005676 565.303528,521.029602 566.025940,519.989929 
	C566.025940,519.989929 566.055420,520.066650 566.572449,519.761047 
	C566.773560,519.212708 566.974609,518.664368 567.087952,518.006714 
	C567.087952,518.006714 567.130859,518.140137 567.625549,517.982239 
	C567.793884,517.689758 567.962158,517.397217 568.011292,517.018066 
	C568.011292,517.018066 568.107483,517.129639 568.607910,516.964905 
z"/>
<path fill="#7DE3B3" opacity="1.000000" stroke="none" 
	d="
M511.261627,297.892792 
	C518.441162,302.034454 525.883667,305.783386 532.755981,310.383972 
	C567.552551,333.678497 589.636841,365.808533 595.752502,407.324921 
	C600.388306,438.795288 596.828552,469.683167 580.896057,498.155884 
	C579.275513,501.051971 577.488586,503.854950 575.155640,506.988556 
	C573.402954,509.232025 572.273438,511.188110 571.143921,513.144165 
	C571.143921,513.144165 571.067017,513.143127 570.848206,513.200134 
	C570.469604,513.552185 570.309875,513.847229 570.150146,514.142273 
	C570.150146,514.142273 570.149170,514.003540 569.874207,514.182983 
	C569.438965,514.942017 569.278625,515.521545 569.118347,516.101135 
	C569.118347,516.101135 569.008789,516.076477 568.815063,516.164551 
	C568.450012,516.545044 568.278748,516.837341 568.107483,517.129639 
	C568.107483,517.129639 568.011292,517.018066 567.820618,517.139160 
	C567.463562,517.553528 567.297241,517.846863 567.130859,518.140137 
	C567.130859,518.140137 567.087952,518.006714 566.842407,518.180237 
	C566.416443,518.924744 566.235962,519.495667 566.055420,520.066650 
	C566.055420,520.066650 566.025940,519.989929 565.698425,520.035400 
	C564.621033,521.099670 563.871216,522.118530 563.121338,523.137390 
	C563.121338,523.137390 563.036987,523.117249 562.828125,523.183838 
	C562.452576,523.544678 562.285889,523.838989 562.119202,524.133301 
	C562.119202,524.133301 562.039673,523.991577 561.840454,524.127808 
	C561.485168,524.558533 561.329102,524.852905 561.173035,525.147339 
	C561.173035,525.147339 561.181091,525.171936 560.854248,525.241821 
	C557.363953,528.894653 554.200439,532.477539 551.036926,536.060425 
	C551.036926,536.060425 550.994568,536.010315 550.712585,536.030640 
	C550.003784,536.429565 549.577026,536.808167 549.150208,537.186768 
	C549.150208,537.186768 549.056152,537.190979 548.846436,537.233215 
	C548.473572,537.565491 548.310486,537.855591 548.147400,538.145630 
	C548.147400,538.145630 548.077515,538.041504 547.853821,538.154907 
	C547.452393,538.554077 547.274658,538.839783 547.096863,539.125427 
	C547.096863,539.125427 547.145752,539.064087 546.785095,539.085571 
	C542.960449,542.090027 539.496460,545.072998 536.032532,548.056030 
	C536.032532,548.056030 535.996155,548.006775 535.711487,548.026489 
	C534.980652,548.414856 534.534424,548.783569 534.088257,549.152222 
	C534.088257,549.152222 534.118958,549.046082 533.765137,549.050903 
	C531.993408,550.102722 530.575439,551.149658 529.157471,552.196594 
	C529.157471,552.196594 529.091797,552.193481 528.860718,552.228149 
	C528.433044,552.535400 528.236389,552.807922 528.039795,553.080505 
	C528.039795,553.080505 528.015564,553.001648 527.701355,553.034180 
	C526.291931,553.765991 525.196655,554.465332 524.101440,555.164673 
	C524.101440,555.164673 523.994019,555.008789 523.735352,555.052490 
	C523.030273,555.460693 522.583801,555.825195 522.137268,556.189697 
	C522.137268,556.189697 522.038818,556.175964 521.835083,556.216187 
	C521.426392,556.519836 521.221497,556.783203 521.016602,557.046631 
	C521.016602,557.046631 521.007385,556.995850 520.643555,557.002747 
	C515.221130,559.394775 510.162567,561.779907 505.103973,564.165039 
	C505.103973,564.165039 505.019501,564.148682 504.748749,564.113892 
	C503.988007,564.398560 503.498047,564.718079 503.008057,565.037598 
	C503.008026,565.037537 503.001190,564.996826 502.636200,564.993042 
	C500.518494,565.678345 498.765778,566.367432 497.013062,567.056458 
	C497.013062,567.056458 497.002106,566.999329 496.596191,566.998596 
	C491.511963,567.988098 486.875427,569.485718 482.147614,569.875244 
	C466.822174,571.138000 451.475067,572.552734 436.114471,572.877380 
	C412.663513,573.373047 389.192963,573.152344 365.733795,572.922241 
	C358.337677,572.849670 350.951385,571.772278 343.265991,571.146729 
	C342.631378,570.950134 342.291382,570.761658 341.904785,570.269836 
	C340.129456,567.991150 338.400696,566.015930 336.485657,563.708435 
	C336.278015,562.875122 336.256683,562.373962 336.454590,561.635681 
	C336.519714,559.972229 336.365601,558.545898 336.153503,556.777039 
	C336.809967,555.273193 337.524384,554.111938 338.551575,552.917114 
	C339.569519,551.940979 340.274719,550.998352 341.024628,549.712524 
	C344.801636,544.722717 348.425018,539.982300 352.311707,535.468628 
	C354.277374,533.185913 353.860687,531.761536 352.006805,529.593628 
	C346.625214,523.300598 340.826996,517.185364 336.541840,510.175415 
	C330.258820,499.897064 325.147095,488.902649 319.614685,477.832397 
	C317.148224,466.161560 313.318146,454.985046 312.310913,443.559692 
	C309.774872,414.791840 315.169312,387.249908 329.505341,361.944122 
	C354.186584,318.377197 391.811951,293.641754 441.382477,288.292084 
	C462.559814,286.006653 483.831940,288.124786 503.941193,296.629364 
	C506.162201,297.568634 508.811157,297.496094 511.261627,297.892792 
z"/>
<path fill="#3B7FDB" opacity="1.000000" stroke="none" 
	d="
M511.126007,297.567627 
	C508.811157,297.496094 506.162201,297.568634 503.941193,296.629364 
	C483.831940,288.124786 462.559814,286.006653 441.382477,288.292084 
	C391.811951,293.641754 354.186584,318.377197 329.505341,361.944122 
	C315.169312,387.249908 309.774872,414.791840 312.310913,443.559692 
	C313.318146,454.985046 317.148224,466.161560 319.289185,477.782959 
	C317.998901,477.694733 317.032654,477.390045 316.237946,476.838348 
	C296.264282,462.972595 281.421936,444.817657 271.345123,422.753876 
	C259.339783,396.467529 256.078949,369.097260 261.606079,340.725800 
	C262.898499,334.091583 264.496948,327.516998 265.954559,320.914978 
	C265.954559,320.914978 265.994720,320.972229 266.197449,320.889648 
	C266.604828,320.541718 266.809509,320.276337 267.014191,320.010956 
	C279.432373,287.878601 300.411163,263.098724 330.888550,246.858551 
	C394.898010,212.750458 472.211731,234.482513 511.126007,297.567627 
z"/>
<path fill="#244E87" opacity="1.000000" stroke="none" 
	d="
M265.598328,320.929932 
	C264.496948,327.516998 262.898499,334.091583 261.606079,340.725800 
	C256.078949,369.097260 259.339783,396.467529 271.345123,422.753876 
	C281.421936,444.817657 296.264282,462.972595 316.237946,476.838348 
	C317.032654,477.390045 317.998901,477.694733 319.210754,478.163940 
	C325.147095,488.902649 330.258820,499.897064 336.541840,510.175415 
	C340.826996,517.185364 346.625214,523.300598 352.006805,529.593628 
	C353.860687,531.761536 354.277374,533.185913 352.311707,535.468628 
	C348.425018,539.982300 344.801636,544.722717 340.719574,549.775452 
	C339.659424,551.104614 338.949066,552.027649 338.238770,552.950684 
	C337.524384,554.111938 336.809967,555.273193 335.900940,556.992920 
	C335.882629,558.991943 336.058990,560.432373 336.235352,561.872864 
	C336.256683,562.373962 336.278015,562.875122 336.380829,564.024841 
	C338.291992,566.640076 340.121704,568.606628 341.951385,570.573242 
	C342.291382,570.761658 342.631378,570.950134 343.405914,571.453369 
	C343.810699,572.409851 343.780975,573.051697 343.751251,573.693481 
	C277.817413,578.431213 224.940506,538.182434 205.599289,486.032776 
	C182.396713,423.471863 207.998566,352.622192 265.598328,320.929932 
z"/>
<path fill="#96D0BE" opacity="1.000000" stroke="none" 
	d="
M344.171326,573.833801 
	C343.780975,573.051697 343.810699,572.409851 343.700531,571.461426 
	C350.951385,571.772278 358.337677,572.849670 365.733795,572.922241 
	C389.192963,573.152344 412.663513,573.373047 436.114471,572.877380 
	C451.475067,572.552734 466.822174,571.138000 482.147614,569.875244 
	C486.875427,569.485718 491.511963,567.988098 496.619263,567.016357 
	C485.850128,571.531311 474.094025,573.399475 462.149689,573.601746 
	C426.761963,574.200806 391.369598,574.540161 355.978119,574.880554 
	C352.185822,574.916992 348.387115,574.292175 344.171326,573.833801 
z"/>
<path fill="#96D0BE" opacity="1.000000" stroke="none" 
	d="
M551.367798,535.987549 
	C554.200439,532.477539 557.363953,528.894653 560.865723,525.247925 
	C558.035583,528.760925 554.867126,532.337830 551.367798,535.987549 
z"/>
<path fill="#96D0BE" opacity="1.000000" stroke="none" 
	d="
M505.492096,564.159912 
	C510.162567,561.779907 515.221130,559.394775 520.662598,557.020325 
	C515.990417,559.405579 510.935333,561.780151 505.492096,564.159912 
z"/>
<path fill="#96D0BE" opacity="1.000000" stroke="none" 
	d="
M536.374146,547.995178 
	C539.496460,545.072998 542.960449,542.090027 546.786621,539.124756 
	C543.671082,542.073059 540.193420,545.003662 536.374146,547.995178 
z"/>
<path fill="#96D0BE" opacity="1.000000" stroke="none" 
	d="
M571.461426,513.038269 
	C572.273438,511.188110 573.402954,509.232025 574.874207,507.169800 
	C574.070312,509.019897 572.924683,510.976135 571.461426,513.038269 
z"/>
<path fill="#96D0BE" opacity="1.000000" stroke="none" 
	d="
M529.505432,552.180054 
	C530.575439,551.149658 531.993408,550.102722 533.779297,549.104370 
	C532.715881,550.156433 531.284668,551.159912 529.505432,552.180054 
z"/>
<path fill="#96D0BE" opacity="1.000000" stroke="none" 
	d="
M497.386841,567.060913 
	C498.765778,566.367432 500.518494,565.678345 502.652527,565.005737 
	C501.276093,565.703186 499.518341,566.384277 497.386841,567.060913 
z"/>
<path fill="#96D0BE" opacity="1.000000" stroke="none" 
	d="
M563.437195,523.059570 
	C563.871216,522.118530 564.621033,521.099670 565.724854,520.067139 
	C565.303528,521.029602 564.528320,522.005676 563.437195,523.059570 
z"/>
<path fill="#96D0BE" opacity="1.000000" stroke="none" 
	d="
M524.441284,555.161255 
	C525.196655,554.465332 526.291931,553.765991 527.730652,553.063232 
	C526.976501,553.759155 525.878784,554.458557 524.441284,555.161255 
z"/>
<path fill="#96D0BE" opacity="1.000000" stroke="none" 
	d="
M566.313965,519.913818 
	C566.235962,519.495667 566.416443,518.924744 566.886353,518.234863 
	C566.974609,518.664368 566.773560,519.212708 566.313965,519.913818 
z"/>
<path fill="#96D0BE" opacity="1.000000" stroke="none" 
	d="
M503.313782,565.030823 
	C503.498047,564.718079 503.988007,564.398560 504.789642,564.109741 
	C504.607361,564.434937 504.113434,564.729492 503.313782,565.030823 
z"/>
<path fill="#96D0BE" opacity="1.000000" stroke="none" 
	d="
M569.376953,515.949463 
	C569.278625,515.521545 569.438965,514.942017 569.894226,514.249390 
	C570.004639,514.690186 569.820068,515.243958 569.376953,515.949463 
z"/>
<path fill="#96D0BE" opacity="1.000000" stroke="none" 
	d="
M549.449341,537.177979 
	C549.577026,536.808167 550.003784,536.429565 550.742188,536.044434 
	C550.618713,536.415039 550.183655,536.792114 549.449341,537.177979 
z"/>
<path fill="#96D0BE" opacity="1.000000" stroke="none" 
	d="
M534.388062,549.126831 
	C534.534424,548.783569 534.980652,548.414856 535.738647,548.040466 
	C535.596252,548.390320 535.142090,548.745850 534.388062,549.126831 
z"/>
<path fill="#96D0BE" opacity="1.000000" stroke="none" 
	d="
M522.436890,556.181335 
	C522.583801,555.825195 523.030273,555.460693 523.793091,555.126831 
	C523.651794,555.496033 523.194153,555.834473 522.436890,556.181335 
z"/>
<path fill="#96D0BE" opacity="1.000000" stroke="none" 
	d="
M521.272461,556.990723 
	C521.221497,556.783203 521.426392,556.519836 521.881958,556.199707 
	C521.931091,556.406860 521.729675,556.670837 521.272461,556.990723 
z"/>
<path fill="#244E87" opacity="1.000000" stroke="none" 
	d="
M266.749207,320.072388 
	C266.809509,320.276337 266.604828,320.541718 266.164246,320.900757 
	C266.113678,320.707520 266.298950,320.420654 266.749207,320.072388 
z"/>
<path fill="#96D0BE" opacity="1.000000" stroke="none" 
	d="
M528.291870,553.012329 
	C528.236389,552.807922 528.433044,552.535400 528.881958,552.203064 
	C528.937439,552.410217 528.740662,552.677185 528.291870,553.012329 
z"/>
<path fill="#96D0BE" opacity="1.000000" stroke="none" 
	d="
M547.347046,539.052734 
	C547.274658,538.839783 547.452393,538.554077 547.883179,538.204224 
	C547.956665,538.420105 547.776978,538.700012 547.347046,539.052734 
z"/>
<path fill="#96D0BE" opacity="1.000000" stroke="none" 
	d="
M548.400452,538.084595 
	C548.310486,537.855591 548.473572,537.565491 548.889526,537.215088 
	C548.979370,537.444336 548.816406,537.734009 548.400452,538.084595 
z"/>
<path fill="#96D0BE" opacity="1.000000" stroke="none" 
	d="
M561.423767,525.081421 
	C561.329102,524.852905 561.485168,524.558533 561.891602,524.191162 
	C561.986145,524.417297 561.830322,524.716370 561.423767,525.081421 
z"/>
<path fill="#96D0BE" opacity="1.000000" stroke="none" 
	d="
M562.364136,524.047119 
	C562.285889,523.838989 562.452576,523.544678 562.867188,523.165039 
	C562.946411,523.373474 562.777710,523.667175 562.364136,524.047119 
z"/>
<path fill="#96D0BE" opacity="1.000000" stroke="none" 
	d="
M567.378174,518.061157 
	C567.297241,517.846863 567.463562,517.553528 567.880188,517.182495 
	C567.962158,517.397217 567.793884,517.689758 567.378174,518.061157 
z"/>
<path fill="#96D0BE" opacity="1.000000" stroke="none" 
	d="
M568.357666,517.047241 
	C568.278748,516.837341 568.450012,516.545044 568.869141,516.167358 
	C568.947388,516.376343 568.777649,516.670593 568.357666,517.047241 
z"/>
<path fill="#96D0BE" opacity="1.000000" stroke="none" 
	d="
M570.397705,514.065613 
	C570.309875,513.847229 570.469604,513.552185 570.877380,513.175171 
	C570.965332,513.391724 570.805298,513.690308 570.397705,514.065613 
z"/>
<path fill="#96D0BE" opacity="1.000000" stroke="none" 
	d="
M341.904785,570.269836 
	C340.121704,568.606628 338.291992,566.640076 336.567139,564.357056 
	C338.400696,566.015930 340.129456,567.991150 341.904785,570.269836 
z"/>
<path fill="#96D0BE" opacity="1.000000" stroke="none" 
	d="
M336.454590,561.635681 
	C336.058990,560.432373 335.882629,558.991943 335.958862,557.335571 
	C336.365601,558.545898 336.519714,559.972229 336.454590,561.635681 
z"/>
<path fill="#96D0BE" opacity="1.000000" stroke="none" 
	d="
M338.551544,552.917114 
	C338.949066,552.027649 339.659424,551.104614 340.674835,550.118652 
	C340.274719,550.998352 339.569519,551.940979 338.551544,552.917114 
z"/>
</svg>